<?xml version="1.0" encoding="UTF-8"?>
<svg fill="#ED1944" width="100pt" height="100pt" version="1.1" viewBox="0 0 100 100" xmlns="http://www.w3.org/2000/svg">
 <g>
  <path d="m61.352 38.543c0 6.2695-5.082 11.352-11.352 11.352s-11.352-5.082-11.352-11.352 5.082-11.348 11.352-11.348 11.352 5.0781 11.352 11.348"/>
  <path d="m78.711 6.25h-57.422c-8.3047 0-15.039 6.7344-15.039 15.039v57.422c0 8.3047 6.7344 15.039 15.039 15.039h57.422c8.3047 0 15.039-6.7344 15.039-15.039v-57.422c0-8.3047-6.7344-15.039-15.039-15.039zm-28.711 15.32c9.3594 0 16.977 7.6172 16.977 16.977 0 9.3555-7.6172 16.977-16.977 16.977s-16.977-7.6172-16.977-16.977 7.6172-16.977 16.977-16.977zm22.531 56.859c-0.050781 0-0.097656 0.003906-0.14844 0.003906-1.4883 0-2.7266-1.1641-2.8047-2.668-0.24219-4.6602-4.0859-8.3086-8.75-8.3086h-21.664c-4.6641 0-8.5078 3.6484-8.75 8.3086-0.074218 1.5469-1.3828 2.7422-2.9453 2.6641-1.5547-0.082032-2.7461-1.4023-2.6641-2.9531 0.39453-7.6484 6.7031-13.645 14.367-13.645h21.664c7.6641 0 13.973 5.9922 14.367 13.645 0.074219 1.5469-1.1172 2.8711-2.6719 2.9531z"/>
 </g>
</svg>
